<?xml version="1.0" standalone="no"?>
<!DOCTYPE svg PUBLIC "-//W3C//DTD SVG 20010904//EN"
 "http://www.w3.org/TR/2001/REC-SVG-20010904/DTD/svg10.dtd">
<svg version="1.0" xmlns="http://www.w3.org/2000/svg"
 width="238.000000pt" height="238.000000pt" viewBox="0 0 238.000000 238.000000"
 preserveAspectRatio="xMidYMid meet">
<metadata>
Created by potrace 1.14, written by Peter Selinger 2001-2017
</metadata>
<g transform="translate(0.000000,238.000000) scale(0.100000,-0.100000)"
fill="#000000" stroke="none">
<path d="M123 1807 c-23 -34 -56 -90 -72 -123 -52 -107 -53 -112 -36 -454 1
-36 6 -137 9 -225 6 -156 14 -293 25 -435 1 -13 28 -15 184 -13 100 1 191 2
202 2 20 1 21 6 20 276 0 151 2 275 5 275 12 0 145 -96 389 -279 292 -220 391
-287 445 -303 24 -7 103 -12 191 -12 144 0 173 2 267 23 24 6 55 12 69 14 46
9 182 55 283 96 216 89 300 168 267 253 -10 26 -87 69 -128 72 -13 0 -23 4
-23 8 0 4 -7 4 -17 1 -10 -4 -14 -2 -10 4 5 7 -5 9 -28 6 -22 -3 -35 0 -35 7
0 7 -8 9 -19 5 -11 -3 -22 -2 -25 3 -3 5 -18 7 -32 4 -16 -3 -25 -1 -21 5 3 5
-4 9 -16 8 -12 -1 -28 3 -36 9 -12 9 -13 8 -6 -3 5 -9 4 -12 -2 -8 -20 12 -74
33 -92 36 -8 1 -228 159 -258 185 -21 18 -35 30 -123 96 -47 35 -89 70 -93 77
-4 7 -13 13 -20 13 -7 0 -26 13 -44 28 -17 16 -64 53 -103 82 l-71 54 36 13
c77 27 125 81 125 141 0 48 -22 58 -73 33 -24 -12 -50 -32 -57 -46 -15 -29
-23 -25 -28 13 -4 31 -32 84 -47 89 -6 2 -19 -3 -30 -10 -14 -11 -18 -28 -19
-68 -1 -30 3 -65 7 -77 8 -21 7 -23 -11 -13 -17 9 -21 7 -26 -13 -18 -71 -111
-129 -206 -128 -109 1 -198 41 -485 222 -93 59 -174 109 -180 113 -5 3 -29
-23 -52 -56z m1024 -34 c16 -39 13 -127 -5 -145 -23 -23 -62 125 -45 169 10
25 34 13 50 -24z m163 -30 c0 -31 -17 -64 -43 -83 -29 -21 -94 -49 -100 -43
-8 7 22 74 50 111 41 55 93 63 93 15z"/>
</g>
</svg>
