<?xml version="1.0" standalone="no"?>
<svg xmlns:xlink="http://www.w3.org/1999/xlink" id="wave" style="transform:rotate(0deg); transition: 0.3s" viewBox="0 0 1440 490" version="1.1" xmlns="http://www.w3.org/2000/svg"><defs><linearGradient id="sw-gradient-0" x1="0" x2="0" y1="1" y2="0"><stop stop-color="rgba(243, 106, 62, 1)" offset="0%"/><stop stop-color="rgba(255, 179, 11, 1)" offset="100%"/></linearGradient></defs><path style="transform:translate(0, 0px); opacity:1" fill="url(#sw-gradient-0)" d="M0,392L26.7,400.2C53.3,408,107,425,160,416.5C213.3,408,267,376,320,326.7C373.3,278,427,212,480,196C533.3,180,587,212,640,212.3C693.3,212,747,180,800,171.5C853.3,163,907,180,960,212.3C1013.3,245,1067,294,1120,294C1173.3,294,1227,245,1280,212.3C1333.3,180,1387,163,1440,130.7C1493.3,98,1547,49,1600,81.7C1653.3,114,1707,229,1760,277.7C1813.3,327,1867,310,1920,261.3C1973.3,212,2027,131,2080,106.2C2133.3,82,2187,114,2240,171.5C2293.3,229,2347,310,2400,359.3C2453.3,408,2507,425,2560,400.2C2613.3,376,2667,310,2720,261.3C2773.3,212,2827,180,2880,163.3C2933.3,147,2987,147,3040,147C3093.3,147,3147,147,3200,187.8C3253.3,229,3307,310,3360,359.3C3413.3,408,3467,425,3520,392C3573.3,359,3627,278,3680,261.3C3733.3,245,3787,294,3813,318.5L3840,343L3840,490L3813.3,490C3786.7,490,3733,490,3680,490C3626.7,490,3573,490,3520,490C3466.7,490,3413,490,3360,490C3306.7,490,3253,490,3200,490C3146.7,490,3093,490,3040,490C2986.7,490,2933,490,2880,490C2826.7,490,2773,490,2720,490C2666.7,490,2613,490,2560,490C2506.7,490,2453,490,2400,490C2346.7,490,2293,490,2240,490C2186.7,490,2133,490,2080,490C2026.7,490,1973,490,1920,490C1866.7,490,1813,490,1760,490C1706.7,490,1653,490,1600,490C1546.7,490,1493,490,1440,490C1386.7,490,1333,490,1280,490C1226.7,490,1173,490,1120,490C1066.7,490,1013,490,960,490C906.7,490,853,490,800,490C746.7,490,693,490,640,490C586.7,490,533,490,480,490C426.7,490,373,490,320,490C266.7,490,213,490,160,490C106.7,490,53,490,27,490L0,490Z"/></svg>